<svg width="13" height="12" viewBox="0 0 13 12" fill="none" xmlns="http://www.w3.org/2000/svg">
<path d="M0.430664 4.24609V3.06348C0.430664 2.389 0.644857 1.85579 1.07324 1.46387C1.50163 1.07194 2.0918 0.875977 2.84375 0.875977C3.60026 0.875977 4.19271 1.07194 4.62109 1.46387C5.04948 1.85579 5.26367 2.389 5.26367 3.06348V4.24609C5.26367 4.92513 5.04948 5.46289 4.62109 5.85938C4.19271 6.25586 3.60026 6.4541 2.84375 6.4541C2.0918 6.4541 1.50163 6.25586 1.07324 5.85938C0.644857 5.46289 0.430664 4.92513 0.430664 4.24609ZM2.05762 4.2666C2.05762 4.53548 2.11686 4.75423 2.23535 4.92285C2.3584 5.09147 2.5612 5.17578 2.84375 5.17578C3.13086 5.17578 3.33366 5.09147 3.45215 4.92285C3.5752 4.75423 3.63672 4.53548 3.63672 4.2666V3.05664C3.63672 2.78776 3.5752 2.56901 3.45215 2.40039C3.33366 2.23177 3.13086 2.14746 2.84375 2.14746C2.5612 2.14746 2.3584 2.23177 2.23535 2.40039C2.11686 2.56901 2.05762 2.78776 2.05762 3.05664V4.2666ZM10.0898 1.36816L4.23145 11.2734L3.07617 10.5693L8.92773 0.677734L10.0898 1.36816ZM7.84082 8.99023V7.80762C7.84082 7.13314 8.05501 6.59993 8.4834 6.20801C8.91178 5.81608 9.50195 5.62012 10.2539 5.62012C11.0104 5.62012 11.6029 5.81608 12.0312 6.20801C12.4596 6.59993 12.6738 7.13314 12.6738 7.80762V8.99023C12.6738 9.66927 12.4596 10.207 12.0312 10.6035C11.6029 11 11.0104 11.1982 10.2539 11.1982C9.50195 11.1982 8.91178 11 8.4834 10.6035C8.05501 10.207 7.84082 9.66927 7.84082 8.99023ZM9.46777 9.01074C9.46777 9.27962 9.52702 9.49837 9.64551 9.66699C9.76855 9.83561 9.97135 9.91992 10.2539 9.91992C10.541 9.91992 10.7438 9.83561 10.8623 9.66699C10.9854 9.49837 11.0469 9.27962 11.0469 9.01074V7.80078C11.0469 7.5319 10.9854 7.31315 10.8623 7.14453C10.7438 6.97591 10.541 6.8916 10.2539 6.8916C9.97135 6.8916 9.76855 6.97591 9.64551 7.14453C9.52702 7.31315 9.46777 7.5319 9.46777 7.80078V9.01074Z" fill="#F14635"/>
</svg>
