<svg width="24" height="24" viewBox="0 0 24 24" fill="none" xmlns="http://www.w3.org/2000/svg">
<path fill-rule="evenodd" clip-rule="evenodd" d="M4 10C4 6.68629 6.68629 4 10 4C13.3137 4 16 6.68629 16 10C16 13.3137 13.3137 16 10 16C6.68629 16 4 13.3137 4 10ZM10 2C5.58172 2 2 5.58172 2 10C2 14.4183 5.58172 18 10 18C11.8493 18 13.5521 17.3725 14.907 16.3188C14.9187 16.3318 14.9308 16.3445 14.9433 16.357L19.2933 20.707C19.6838 21.0975 20.317 21.0975 20.7075 20.707C21.098 20.3165 21.098 19.6833 20.7075 19.2928L16.3575 14.9428C16.345 14.9303 16.3322 14.9182 16.3192 14.9065C17.3727 13.5516 18 11.8491 18 10C18 5.58172 14.4183 2 10 2Z" fill="#C2C2C2"/>
</svg>
