<svg width="16" height="16" viewBox="0 0 16 16" fill="none" xmlns="http://www.w3.org/2000/svg">
<g clip-path="url(#clip0_10_1940)">
<path fill-rule="evenodd" clip-rule="evenodd" d="M8.00002 4.68781C6.1707 4.68781 4.68775 6.17076 4.68775 8.00008C4.68775 9.8294 6.1707 11.3124 8.00002 11.3124C9.82934 11.3124 11.3123 9.8294 11.3123 8.00008C11.3123 6.17076 9.82934 4.68781 8.00002 4.68781ZM6.38774 8.00008C6.38774 7.10965 7.10959 6.3878 8.00002 6.3878C8.89046 6.3878 9.6123 7.10965 9.6123 8.00008C9.6123 8.89052 8.89046 9.61236 8.00002 9.61236C7.10959 9.61236 6.38774 8.89052 6.38774 8.00008Z" fill="#8F8F8F"/>
<path fill-rule="evenodd" clip-rule="evenodd" d="M8.00005 0.142212C7.7383 0.142212 7.4793 0.155039 7.22367 0.180144C6.41872 0.259196 5.81817 0.823857 5.56847 1.49039L5.28396 2.2498C5.23529 2.37971 5.11528 2.52502 4.90674 2.64573C4.70057 2.76506 4.51752 2.79593 4.3787 2.77279L3.57855 2.63944C2.87753 2.5226 2.08979 2.75938 1.61833 3.41448C1.31596 3.83463 1.05392 4.28607 0.838012 4.76312C0.504718 5.49953 0.693993 6.30104 1.14575 6.8498L1.66291 7.47802C1.75203 7.58627 1.81732 7.76154 1.81732 8.00002C1.81732 8.23851 1.75203 8.41378 1.66291 8.52204L1.14575 9.15025C0.693994 9.69901 0.50472 10.5005 0.838014 11.2369C1.05392 11.714 1.31596 12.1654 1.61834 12.5856C2.0898 13.2407 2.87753 13.4775 3.57855 13.3606L4.37871 13.2273C4.51753 13.2041 4.70058 13.235 4.90675 13.3543C5.11528 13.475 5.23529 13.6203 5.28396 13.7502L5.56847 14.5097C5.81817 15.1762 6.41872 15.7409 7.22366 15.8199C7.4793 15.845 7.7383 15.8578 8.00005 15.8578C8.26179 15.8578 8.52079 15.845 8.77643 15.8199C9.58137 15.7409 10.1819 15.1762 10.4316 14.5097L10.7161 13.7502C10.7648 13.6203 10.8848 13.475 11.0933 13.3543C11.2995 13.235 11.4826 13.2041 11.6214 13.2273L12.4215 13.3606C13.1226 13.4775 13.9103 13.2407 14.3818 12.5856C14.6841 12.1654 14.9462 11.714 15.1621 11.2369C15.4954 10.5005 15.3061 9.69901 14.8543 9.15025L14.3372 8.52203C14.2481 8.41378 14.1828 8.23851 14.1828 8.00002C14.1828 7.76154 14.2481 7.58628 14.3372 7.47802L14.8543 6.8498C15.3061 6.30104 15.4954 5.49953 15.1621 4.76312C14.9462 4.28607 14.6841 3.83464 14.3818 3.41448C13.9103 2.75938 13.1226 2.5226 12.4215 2.63944L11.6214 2.77279C11.4826 2.79593 11.2995 2.76506 11.0933 2.64573C10.8848 2.52502 10.7648 2.37971 10.7161 2.2498L10.4316 1.49039C10.1819 0.823857 9.58138 0.259197 8.77643 0.180144C8.52079 0.155039 8.26179 0.142212 8.00005 0.142212ZM7.38982 1.87201C7.59032 1.85231 7.79388 1.84221 8.00005 1.84221C8.20622 1.84221 8.40977 1.85231 8.61027 1.87201C8.67618 1.87848 8.7824 1.93391 8.83968 2.0868L9.12418 2.8462C9.34465 3.4347 9.78631 3.85344 10.2418 4.11705C10.7005 4.38258 11.2819 4.55283 11.9009 4.44966L12.701 4.31631C12.8618 4.28952 12.9631 4.35351 13.0019 4.40751C13.2391 4.73703 13.4443 5.09073 13.6133 5.46407C13.6404 5.52392 13.6456 5.64331 13.5419 5.76934L13.0247 6.39756C12.6262 6.88169 12.4828 7.47121 12.4828 8.00002C12.4828 8.52884 12.6262 9.11836 13.0247 9.6025L13.5419 10.2307C13.6456 10.3567 13.6404 10.4761 13.6133 10.536C13.4443 10.9093 13.2391 11.263 13.0019 11.5925C12.9631 11.6465 12.8618 11.7105 12.701 11.6837L11.9009 11.5504C11.2818 11.4472 10.7005 11.6175 10.2417 11.883C9.78631 12.1466 9.34466 12.5653 9.12418 13.1538L8.83968 13.9133C8.7824 14.0661 8.67618 14.1216 8.61027 14.128C8.40977 14.1477 8.20622 14.1578 8.00005 14.1578C7.79388 14.1578 7.59032 14.1477 7.38982 14.128C7.32391 14.1216 7.21769 14.0661 7.16041 13.9133L6.87591 13.1538C6.65544 12.5653 6.21379 12.1466 5.75834 11.883C5.29958 11.6175 4.71824 11.4472 4.09924 11.5504L3.29908 11.6837C3.13834 11.7105 3.03702 11.6465 2.99816 11.5925C2.76101 11.263 2.55575 10.9093 2.38678 10.536C2.35969 10.4761 2.35448 10.3567 2.45822 10.2307L2.97539 9.60251C3.37394 9.11837 3.51732 8.52884 3.51732 8.00002C3.51732 7.47121 3.37394 6.88169 2.97539 6.39755L2.45822 5.76934C2.35448 5.64331 2.35969 5.52392 2.38677 5.46407C2.55575 5.09072 2.761 4.73703 2.99815 4.40751C3.03701 4.35351 3.13834 4.28952 3.29907 4.31631L4.09922 4.44966C4.71824 4.55283 5.29957 4.38258 5.75834 4.11705C6.21378 3.85344 6.65544 3.4347 6.87591 2.8462L7.16041 2.0868C7.21769 1.93391 7.32391 1.87848 7.38982 1.87201Z" fill="#8F8F8F"/>
</g>
<defs>
<clipPath id="clip0_10_1940">
<rect width="16" height="16" fill="white"/>
</clipPath>
</defs>
</svg>
