<svg width="16" height="16" viewBox="0 0 16 16" fill="none" xmlns="http://www.w3.org/2000/svg">
<path fill-rule="evenodd" clip-rule="evenodd" d="M8.74417 1.47877C8.60437 1.19551 8.31588 1.01617 7.99999 1.01617C7.68411 1.01617 7.39562 1.19551 7.25582 1.47877L5.44937 5.13904L1.41002 5.72599C1.09742 5.77141 0.837718 5.99037 0.740104 6.29079C0.64249 6.59122 0.723898 6.92101 0.950099 7.1415L3.87299 9.99062L3.18299 14.0136C3.12959 14.325 3.25758 14.6396 3.51313 14.8253C3.76869 15.011 4.1075 15.0355 4.38709 14.8885L7.99999 12.9891L11.6129 14.8885C11.8925 15.0355 12.2313 15.011 12.4868 14.8253C12.7424 14.6396 12.8704 14.325 12.817 14.0136L12.127 9.99062L15.0499 7.1415C15.2761 6.92101 15.3575 6.59122 15.2599 6.29079C15.1623 5.99037 14.9026 5.77141 14.59 5.72599L10.5506 5.13904L8.74417 1.47877ZM7.99999 11.2216C8.13263 11.2216 8.26528 11.2534 8.38617 11.3169L10.8969 12.6369L10.4174 9.84118C10.3712 9.57197 10.4605 9.29728 10.656 9.10663L12.6873 7.12669L9.88019 6.7188C9.6099 6.67952 9.37623 6.50975 9.25535 6.26482L7.99999 3.72118L7.99999 11.2216Z" fill="#F14635"/>
</svg>
