<svg width="16" height="16" viewBox="0 0 16 16" fill="none" xmlns="http://www.w3.org/2000/svg">
<path d="M8 1.7002C9.41395 1.7002 10.7686 3.05434 10.7686 5.00001C10.7686 6.94567 9.41395 8.29981 8 8.29981C6.58605 8.29981 5.23145 6.94567 5.23145 5.00001C5.23145 3.05434 6.58605 1.7002 8 1.7002Z" stroke="#C2C2C2" stroke-width="1.9"/>
<path d="M8.1 8.30006C6.62994 8.30006 4.56988 9.08108 3.09982 10.0611C1.92377 10.8452 1.62976 12.0212 1.62976 12.5112V12.5112C1.62976 13.5937 2.50732 14.4713 3.58984 14.4713H7.00001" stroke="#C2C2C2" stroke-width="1.9" stroke-linecap="round"/>
<path fill-rule="evenodd" clip-rule="evenodd" d="M12.5 16C14.433 16 16 14.433 16 12.5C16 10.567 14.433 9.00001 12.5 9.00001C10.567 9.00001 9 10.567 9 12.5C9 14.433 10.567 16 12.5 16ZM13.2 11.0999C13.2 10.7133 12.8866 10.3999 12.5 10.3999C12.1134 10.3999 11.8 10.7133 11.8 11.0999V12.0333V12.6026C11.8 12.937 11.9593 13.2515 12.2291 13.4493L13.136 14.1144C13.4478 14.343 13.8859 14.2756 14.1145 13.9639C14.3431 13.6521 14.2757 13.2141 13.964 12.9854L13.2 12.4252V12.0333V11.0999Z" fill="#C2C2C2"/>
</svg>
