<svg width="40" height="40" viewBox="0 0 40 40" fill="none" xmlns="http://www.w3.org/2000/svg">
<g clip-path="url(#clip0_10_2018)">
<g clip-path="url(#clip1_10_2018)">
<path d="M29.3188 31.0454L24.4309 28.5905C23.9699 28.3587 23.6834 27.893 23.6834 27.3749V25.637C23.8005 25.4931 23.9239 25.3291 24.0513 25.1482C24.6852 24.2486 25.1933 23.2474 25.5627 22.1674C26.2846 21.8349 26.7533 21.1178 26.7533 20.3082V18.2522C26.7533 17.7572 26.5691 17.2776 26.2417 16.9029V14.1689C26.2703 13.8862 26.3829 12.2033 25.1713 10.815C24.1203 9.61068 22.415 9.00004 20.1018 9.00004C17.7886 9.00004 16.0832 9.61068 15.0323 10.8145C13.8207 12.2028 13.9332 13.8862 13.9619 14.1689V16.9029C13.6344 17.2776 13.4502 17.7572 13.4502 18.2522V20.3082C13.4502 20.9338 13.7332 21.5172 14.2162 21.9063C14.6849 23.7706 15.6657 25.1754 16.0085 25.6262V27.327C16.0085 27.8246 15.7384 28.2811 15.304 28.5196L10.7395 31.0207C9.25515 31.8344 8.33366 33.3939 8.33366 35.0922V40C11.2504 40 16.0315 40 20.1018 40C24.172 40 28.3415 39.9996 31.7504 39.9996V35.75C31.7504 33.9829 30.8921 31.8359 29.3188 31.0454Z" fill="#C2C2C2"/>
</g>
</g>
<rect x="0.5" y="0.5" width="39" height="39" rx="19.5" stroke="#C2C2C2"/>
<defs>
<clipPath id="clip0_10_2018">
<rect width="40" height="40" rx="20" fill="white"/>
</clipPath>
<clipPath id="clip1_10_2018">
<rect width="40" height="40" fill="white"/>
</clipPath>
</defs>
</svg>
